<svg width="256" height="256" viewBox="0 0 256 256" fill="none" xmlns="http://www.w3.org/2000/svg">
<rect width="256" height="256" rx="16" fill="#CDC1FF"/>
<path d="M92.5455 187.648C86.9773 187.648 82.0152 186.682 77.6591 184.75C73.303 182.78 69.8561 179.883 67.3182 176.057C64.8182 172.193 63.5682 167.383 63.5682 161.625C63.5682 156.777 64.4583 152.705 66.2386 149.409C68.0189 146.114 70.4432 143.462 73.5114 141.455C76.5795 139.447 80.0644 137.932 83.9659 136.909C87.9053 135.886 92.0341 135.167 96.3523 134.75C101.428 134.22 105.519 133.727 108.625 133.273C111.731 132.78 113.985 132.061 115.386 131.114C116.788 130.167 117.489 128.765 117.489 126.909V126.568C117.489 122.97 116.352 120.186 114.08 118.216C111.845 116.246 108.663 115.261 104.534 115.261C100.178 115.261 96.7121 116.227 94.1364 118.159C91.5606 120.053 89.8561 122.439 89.0227 125.318L66.6364 123.5C67.7727 118.197 70.0076 113.614 73.3409 109.75C76.6742 105.848 80.9735 102.856 86.2386 100.773C91.5417 98.6515 97.678 97.5909 104.648 97.5909C109.496 97.5909 114.136 98.1591 118.568 99.2955C123.038 100.432 126.996 102.193 130.443 104.58C133.928 106.966 136.674 110.034 138.682 113.784C140.689 117.496 141.693 121.947 141.693 127.136V186H118.739V173.898H118.057C116.655 176.625 114.78 179.03 112.432 181.114C110.083 183.159 107.261 184.769 103.966 185.943C100.67 187.08 96.8636 187.648 92.5455 187.648ZM99.4773 170.943C103.038 170.943 106.182 170.242 108.909 168.841C111.636 167.402 113.777 165.47 115.33 163.045C116.883 160.621 117.659 157.875 117.659 154.807V145.545C116.902 146.038 115.86 146.492 114.534 146.909C113.246 147.288 111.788 147.648 110.159 147.989C108.53 148.292 106.902 148.576 105.273 148.841C103.644 149.068 102.167 149.277 100.841 149.466C98 149.883 95.5189 150.545 93.3977 151.455C91.2765 152.364 89.6288 153.595 88.4545 155.148C87.2803 156.663 86.6932 158.557 86.6932 160.83C86.6932 164.125 87.8864 166.644 90.2727 168.386C92.697 170.091 95.7652 170.943 99.4773 170.943ZM174.619 187.477C170.869 187.477 167.65 186.152 164.96 183.5C162.309 180.811 160.983 177.591 160.983 173.841C160.983 170.129 162.309 166.947 164.96 164.295C167.65 161.644 170.869 160.318 174.619 160.318C178.256 160.318 181.438 161.644 184.165 164.295C186.892 166.947 188.256 170.129 188.256 173.841C188.256 176.341 187.612 178.633 186.324 180.716C185.074 182.761 183.426 184.409 181.381 185.659C179.335 186.871 177.081 187.477 174.619 187.477Z" fill="black"/>
</svg>
